<svg xmlns="http://www.w3.org/2000/svg" width="16" height="20" viewBox="0 0 16 20" fill="none">
    <path fill-rule="evenodd" clip-rule="evenodd" d="M2.6087 6.08696V5.01976C2.6087 3.67504 3.1687 2.39406 4.1513 1.45613C5.13252 0.519502 6.45506 0 7.82609 0C9.19711 0 10.5197 0.519502 11.5009 1.45613C12.4835 2.39406 13.0435 3.67504 13.0435 5.01976V6.08696H13.913C14.8735 6.08696 15.6522 6.86559 15.6522 7.82609V15.6522C15.6522 18.0534 13.7056 20 11.3043 20H4.34783C1.94659 20 0 18.0534 0 15.6522V7.82609C0 6.86559 0.778635 6.08696 1.73913 6.08696H2.6087ZM5.35212 2.71413C6.00165 2.09413 6.89088 1.73913 7.82609 1.73913C8.7613 1.73913 9.65052 2.09413 10.3001 2.71413C10.9482 3.33282 11.3043 4.16308 11.3043 5.01976V6.08696H4.34783V5.01976C4.34783 4.16308 4.70397 3.33283 5.35212 2.71413ZM1.73913 15.6522V7.82609H13.913V15.6522C13.913 17.0929 12.7451 18.2609 11.3043 18.2609H4.34783C2.90708 18.2609 1.73913 17.0929 1.73913 15.6522Z" fill="black"/>
</svg>