<svg xmlns="http://www.w3.org/2000/svg" width="15" height="17" viewBox="0 0 15 17" fill="none">
    <path fill-rule="evenodd" clip-rule="evenodd" d="M11.25 0.772727C11.25 0.345962 10.9142 0 10.5 0C10.0858 0 9.75 0.345962 9.75 0.772727V1.54545H5.25V0.772727C5.25 0.345962 4.91421 0 4.5 0C4.08579 0 3.75 0.345962 3.75 0.772727V1.54545H2.25C1.00736 1.54545 0 2.58334 0 3.86364V14.6818C0 15.9621 1.00736 17 2.25 17H12.75C13.9926 17 15 15.9621 15 14.6818V3.86364C15 2.58334 13.9926 1.54545 12.75 1.54545H11.25V0.772727ZM13.5 6.18182V3.86364C13.5 3.43687 13.1642 3.09091 12.75 3.09091H11.25V3.86364C11.25 4.2904 10.9142 4.63636 10.5 4.63636C10.0858 4.63636 9.75 4.2904 9.75 3.86364V3.09091H5.25V3.86364C5.25 4.2904 4.91421 4.63636 4.5 4.63636C4.08579 4.63636 3.75 4.2904 3.75 3.86364V3.09091H2.25C1.83579 3.09091 1.5 3.43687 1.5 3.86364V6.18182H13.5ZM1.5 7.72727H13.5V14.6818C13.5 15.1086 13.1642 15.4545 12.75 15.4545H2.25C1.83579 15.4545 1.5 15.1086 1.5 14.6818V7.72727Z" fill="#252324"/>
</svg>