<svg xmlns="http://www.w3.org/2000/svg" width="14" height="14" viewBox="0 0 14 14" fill="none">
    <path d="M12.2929 0.279152C12.6834 -0.0930506 13.3166 -0.0930506 13.7071 0.279152C14.0976 0.651354 14.0976 1.25481 13.7071 1.62702L8.41421 6.67159L13.7071 11.7162C14.0976 12.0884 14.0976 12.6918 13.7071 13.064C13.3166 13.4362 12.6834 13.4362 12.2929 13.064L7 8.01945L1.70711 13.064C1.31658 13.4362 0.683418 13.4362 0.292894 13.064C-0.0976312 12.6918 -0.0976312 12.0884 0.292894 11.7162L5.58579 6.67159L0.292894 1.62702C-0.0976306 1.25481 -0.0976306 0.651354 0.292894 0.279152C0.683418 -0.0930506 1.31658 -0.0930506 1.70711 0.279152L7 5.32372L12.2929 0.279152Z" fill="#949494"/>
</svg>