<svg xmlns="http://www.w3.org/2000/svg" width="20" height="20" viewBox="0 0 20 20" fill="none">
    <path fill-rule="evenodd" clip-rule="evenodd" d="M10 0C4.47715 0 0 4.47715 0 10C0 15.5228 4.47715 20 10 20C15.5228 20 20 15.5228 20 10C20 4.47715 15.5228 0 10 0ZM7.93245 2.08166C4.69891 2.92362 2.24364 5.69386 1.86812 9.09091H5.50008C5.7039 6.57892 6.54463 4.16766 7.93245 2.08166ZM12.0675 2.08166C13.4554 4.16766 14.2961 6.57892 14.4999 9.09091H18.1319C17.7564 5.69386 15.3011 2.92362 12.0675 2.08166ZM12.6749 9.09091C12.4466 6.62438 11.5179 4.27447 10 2.31889C8.48211 4.27447 7.55344 6.62438 7.32508 9.09091H12.6749ZM7.32509 10.9091H12.6749C12.4466 13.3756 11.5179 15.7255 10 17.6811C8.48211 15.7255 7.55345 13.3756 7.32509 10.9091ZM5.50008 10.9091H1.86812C2.24364 14.3062 4.69892 17.0764 7.93247 17.9183C6.54465 15.8323 5.70391 13.4211 5.50008 10.9091ZM12.0675 17.9183C13.4554 15.8323 14.2961 13.4211 14.4999 10.9091H18.1319C17.7564 14.3062 15.3011 17.0764 12.0675 17.9183Z" fill="black"/>
</svg>