<svg xmlns="http://www.w3.org/2000/svg" width="14" height="14" viewBox="0 0 14 14" fill="none">
    <path d="M8.39162 0.953384C8.41027 0.882091 8.44296 0.815237 8.48779 0.756739C8.53261 0.698242 8.58865 0.649278 8.65263 0.612716C8.71662 0.576153 8.78725 0.552728 8.86041 0.543812C8.93356 0.534897 9.00776 0.54067 9.07865 0.560794C10.1241 0.841197 11.0775 1.39174 11.8429 2.15714C12.6083 2.92254 13.1588 3.87586 13.4392 4.92135C13.4593 4.99224 13.4651 5.06644 13.4562 5.13959C13.4473 5.21274 13.4238 5.28338 13.3873 5.34737C13.3507 5.41135 13.3018 5.46739 13.2433 5.51221C13.1848 5.55703 13.1179 5.58973 13.0466 5.60838C12.9988 5.62224 12.9492 5.62932 12.8994 5.62941C12.7756 5.6287 12.6555 5.58706 12.5579 5.51097C12.4603 5.43489 12.3905 5.32864 12.3596 5.20878C12.1264 4.3551 11.6746 3.57698 11.0488 2.95121C10.423 2.32544 9.6449 1.87365 8.79122 1.64042C8.71929 1.62253 8.65169 1.59039 8.59241 1.5459C8.53313 1.50141 8.48339 1.44547 8.44613 1.38141C8.40886 1.31734 8.38484 1.24644 8.37547 1.17292C8.36611 1.0994 8.3716 1.02475 8.39162 0.953384ZM8.20934 3.80667C8.68387 3.93657 9.11638 4.18784 9.46427 4.53573C9.81216 4.88361 10.0634 5.31613 10.1933 5.79066C10.2232 5.91111 10.2926 6.01805 10.3905 6.09432C10.4884 6.1706 10.609 6.21179 10.7331 6.21129C10.7807 6.21175 10.828 6.20465 10.8733 6.19026C10.9453 6.17237 11.0129 6.14023 11.0722 6.09574C11.1314 6.05125 11.1812 5.99531 11.2184 5.93125C11.2557 5.86718 11.2797 5.79628 11.2891 5.72276C11.2985 5.64924 11.293 5.57459 11.2729 5.50322C11.0959 4.83688 10.7459 4.22916 10.2584 3.74164C9.77083 3.25411 9.16312 2.9041 8.49677 2.72705C8.42362 2.7004 8.34571 2.68927 8.26802 2.69438C8.19032 2.69948 8.11454 2.72071 8.0455 2.75671C7.97646 2.79271 7.91568 2.84268 7.86701 2.90346C7.81834 2.96424 7.78286 3.03448 7.76283 3.10972C7.7428 3.18496 7.73865 3.26355 7.75066 3.34048C7.76266 3.41741 7.79055 3.491 7.83256 3.55656C7.87456 3.62212 7.92975 3.67822 7.99462 3.72128C8.05949 3.76434 8.13262 3.79342 8.20934 3.80667ZM13.993 10.5718C13.869 11.5186 13.4054 12.388 12.6885 13.0186C11.9715 13.6491 11.05 13.9979 10.0952 14C4.52881 14 0 9.47119 0 3.90482C0.00210481 2.95003 0.350859 2.02848 0.981421 1.31152C1.61198 0.594565 2.48145 0.130981 3.42815 0.00696131C3.66949 -0.0197973 3.91307 0.0310137 4.12358 0.152026C4.33409 0.273038 4.50059 0.457959 4.59891 0.679973L6.00803 3.96792C6.08113 4.13858 6.11043 4.3248 6.09329 4.50967C6.07615 4.69453 6.01311 4.87219 5.90988 5.02651L4.74614 6.80719C5.27311 7.87664 6.14141 8.74001 7.21384 9.26087L8.97349 8.09011C9.12765 7.9862 9.30575 7.9233 9.49097 7.90735C9.6762 7.89141 9.86243 7.92294 10.0321 7.99898L13.32 9.40108C13.542 9.49941 13.727 9.6659 13.848 9.87642C13.969 10.0869 14.0198 10.3305 13.993 10.5718ZM12.8784 10.4316L9.59042 9.02953L7.83778 10.2003C7.67652 10.3069 7.49044 10.37 7.29759 10.3835C7.10475 10.397 6.91168 10.3605 6.73713 10.2774C5.43103 9.6456 4.37453 8.59404 3.73662 7.29091C3.65251 7.11695 3.61477 6.92421 3.62705 6.73137C3.63934 6.53854 3.70123 6.35214 3.80672 6.19026L4.97748 4.40958L3.56836 1.12164C2.89181 1.20861 2.27016 1.53919 1.81979 2.0515C1.36943 2.56381 1.12124 3.2227 1.12169 3.90482C1.12354 6.28417 2.06956 8.56553 3.75201 10.248C5.43447 11.9304 7.71583 12.8765 10.0952 12.8783C10.7773 12.8788 11.4362 12.6306 11.9485 12.1802C12.4608 11.7298 12.7914 11.1082 12.8784 10.4316Z" fill="#252324"/>
</svg>