<svg xmlns="http://www.w3.org/2000/svg" width="18" height="20" viewBox="0 0 18 20" fill="none">
    <path fill-rule="evenodd" clip-rule="evenodd" d="M9 0C6.26619 0 4.05 2.23858 4.05 5C4.05 7.76142 6.26619 10 9 10C11.7338 10 13.95 7.76142 13.95 5C13.95 2.23858 11.7338 0 9 0ZM5.85 5C5.85 3.24273 7.2603 1.81818 9 1.81818C10.7397 1.81818 12.15 3.24273 12.15 5C12.15 6.75727 10.7397 8.18182 9 8.18182C7.2603 8.18182 5.85 6.75727 5.85 5Z" fill="black"/>
    <path d="M5.4 11.8182C2.41766 11.8182 0 14.2603 0 17.2727V19.0909C0 19.593 0.402944 20 0.9 20C1.39706 20 1.8 19.593 1.8 19.0909V17.2727C1.8 15.2644 3.41177 13.6364 5.4 13.6364H12.6C14.5882 13.6364 16.2 15.2644 16.2 17.2727V19.0909C16.2 19.593 16.6029 20 17.1 20C17.5971 20 18 19.593 18 19.0909V17.2727C18 14.2603 15.5823 11.8182 12.6 11.8182H5.4Z" fill="black"/>
</svg>